<svg xmlns="http://www.w3.org/2000/svg" width="22" height="19" viewBox="0 0 22 19"><defs><style>.a{fill:none;}.b,.c{stroke:none;}.c{fill:#707070;}</style></defs><g transform="translate(-269.527 -595.949)"><g class="a" transform="translate(269.527 595.949)"><path class="b" d="M.991,19A.979.979,0,0,1,0,18.053a6.411,6.411,0,0,1,1.763-4.819,6.577,6.577,0,0,1,5.123-2.065,6.4,6.4,0,0,1,5.05,2.064,6.413,6.413,0,0,1,1.765,4.82.98.98,0,0,1-.989.947Zm16.591-2.943a.734.734,0,0,1,0-1.055,9.587,9.587,0,0,0,0-13.729.736.736,0,0,1,0-1.055.773.773,0,0,1,1.077,0,11.057,11.057,0,0,1,0,15.838.772.772,0,0,1-1.076,0Zm-2.338-3.3a.736.736,0,0,1,0-1.056,4.97,4.97,0,0,0,0-7.118.734.734,0,0,1,0-1.055.772.772,0,0,1,1.076,0,6.444,6.444,0,0,1,0,9.229.772.772,0,0,1-1.076,0ZM2.513,7.02A4.023,4.023,0,0,1,6.575,3.038,4.023,4.023,0,0,1,10.639,7.02,4.023,4.023,0,0,1,6.575,11,4.023,4.023,0,0,1,2.513,7.02Zm9.9,3.593a.736.736,0,0,1,0-1.056,1.981,1.981,0,0,0,0-2.837.737.737,0,0,1,0-1.056.773.773,0,0,1,1.077,0,3.454,3.454,0,0,1,0,4.946.774.774,0,0,1-1.077,0Z"/><path class="c" d="M 12.70432090759277 17.99990081787109 C 12.73695182800293 16.3420238494873 12.2276782989502 14.93833541870117 11.23003005981445 13.93844032287598 C 10.14183044433594 12.84603977203369 9.036640167236328 12.16899967193604 6.88860034942627 12.16899967193604 C 4.689730167388916 12.16899967193604 3.533520221710205 12.87683010101318 2.473970174789429 13.93964958190918 C 1.47737193107605 14.93923950195312 0.9686212539672852 16.3420295715332 1.001769304275513 17.99990081787109 L 12.70432090759277 17.99990081787109 M 6.575400352478027 10.00160026550293 C 8.264619827270508 10.00160026550293 9.638899803161621 8.664059638977051 9.638899803161621 7.019999980926514 C 9.638899803161621 5.375440120697021 8.264619827270508 4.037499904632568 6.575400352478027 4.037499904632568 C 4.886680126190186 4.037499904632568 3.512800216674805 5.375440120697021 3.512800216674805 7.019999980926514 C 3.512800216674805 8.664059638977051 4.886680126190186 10.00160026550293 6.575400352478027 10.00160026550293 M 12.71430015563965 18.99990081787109 L 0.9909002780914307 18.99990081787109 C 0.4536002576351166 18.99990081787109 0.01440025493502617 18.57959938049316 0.002700254786759615 18.0531005859375 C -0.04409974440932274 16.10370063781738 0.5661002397537231 14.43690013885498 1.76580023765564 13.23359966278076 C 2.934000253677368 12.06180000305176 4.345200061798096 11.16899967193604 6.88860034942627 11.16899967193604 C 6.88984203338623 11.16899967193604 6.891200542449951 11.16899967193604 6.892441749572754 11.16899967193604 C 9.433424949645996 11.16899967193604 10.77177047729492 12.06147193908691 11.93850040435791 13.23270034790039 C 13.13910007476807 14.43599987030029 13.74930000305176 16.1028003692627 13.70340061187744 18.0531005859375 C 13.69080066680908 18.57959938049316 13.25160026550293 18.99990081787109 12.71430015563965 18.99990081787109 Z M 18.11969947814941 16.27560043334961 C 17.92530059814453 16.27560043334961 17.72999954223633 16.20269966125488 17.58150100708008 16.05690002441406 C 17.28359985351562 15.76620006561279 17.28359985351562 15.292799949646 17.58150100708008 15.00209999084473 C 21.44160079956055 11.21580028533936 21.44339942932129 5.058000087738037 17.5851001739502 1.273499965667725 C 17.28810119628906 0.9819000363349915 17.28810119628906 0.5094000101089478 17.5851001739502 0.2187000215053558 C 17.73405075073242 0.07290001958608627 17.92912483215332 2.288818201634513e-08 18.12408828735352 2.288818201634513e-08 C 18.31904983520508 2.288818201634513e-08 18.51390075683594 0.07290001958608627 18.66240119934082 0.2187000215053558 C 23.11470031738281 4.58459997177124 23.11289978027344 11.68920040130615 18.65789985656738 16.05690002441406 C 18.5093994140625 16.20269966125488 18.31500053405762 16.27560043334961 18.11969947814941 16.27560043334961 Z M 15.7814998626709 12.97169971466064 C 15.58620071411133 12.97169971466064 15.39179992675781 12.89879989624023 15.24330043792725 12.75300025939941 C 14.94540023803711 12.46140003204346 14.94540023803711 11.98890018463135 15.24240016937256 11.69729995727539 C 17.24489974975586 9.734399795532227 17.24580001831055 6.541200160980225 15.24600028991699 4.57919979095459 C 14.94810009002686 4.287600040435791 14.94810009002686 3.815099954605103 15.24600028991699 3.524399995803833 C 15.39449977874756 3.378600120544434 15.58935070037842 3.305700063705444 15.78420066833496 3.305700063705444 C 15.9790506362915 3.305700063705444 16.17390060424805 3.378600120544434 16.32240104675293 3.524399995803833 C 18.91620063781738 6.067800045013428 18.9153003692627 10.20779991149902 16.31970024108887 12.75300025939941 C 16.17119979858398 12.89789962768555 15.97679996490479 12.97169971466064 15.7814998626709 12.97169971466064 Z M 6.575400352478027 11.00160026550293 C 4.331700325012207 11.00160026550293 2.512800216674805 9.218700408935547 2.512800216674805 7.019999980926514 C 2.512800216674805 4.820400238037109 4.331700325012207 3.037499904632568 6.575400352478027 3.037499904632568 C 8.820000648498535 3.037499904632568 10.63889980316162 4.820400238037109 10.63889980316162 7.019999980926514 C 10.63889980316162 9.218700408935547 8.820000648498535 11.00160026550293 6.575400352478027 11.00160026550293 Z M 12.95279979705811 10.83059978485107 C 12.75839996337891 10.83059978485107 12.56309986114502 10.75860023498535 12.41460037231445 10.61279964447021 C 12.117600440979 10.32120037078857 12.11670017242432 9.848699569702148 12.41460037231445 9.557100296020508 C 13.21199989318848 8.774999618530273 13.21199989318848 7.502399921417236 12.41460037231445 6.720300197601318 C 12.117600440979 6.428699970245361 12.117600440979 5.956200122833252 12.41460037231445 5.664599895477295 C 12.56331348419189 5.519031524658203 12.75803184509277 5.446349620819092 12.95268535614014 5.446349620819092 C 13.14795684814453 5.446349620819092 13.34316444396973 5.519468784332275 13.49190044403076 5.665500164031982 C 14.88240051269531 7.028999805450439 14.88240051269531 9.24839973449707 13.49190044403076 10.61190032958984 C 13.34250068664551 10.75769996643066 13.14809989929199 10.83059978485107 12.95279979705811 10.83059978485107 Z"/></g></g></svg>