<svg xmlns="http://www.w3.org/2000/svg" width="26" height="18" viewBox="0 0 26 18">
    <path fill="#FFF" fill-rule="nonzero" d="M7.568 9.699h.119c1.09-.019 1.97-.403 2.62-1.137 1.432-1.618 1.194-4.391 1.168-4.656C11.382 1.92 10.445.97 9.672.526 9.096.194 8.423.015 7.672 0H7.61c-.412 0-1.223.067-2 .51-.78.444-1.731 1.395-1.824 3.396-.026.265-.264 3.038 1.167 4.656.646.734 1.527 1.118 2.616 1.137zm-2.79-5.7l.003-.03C4.903 1.298 6.795 1.01 7.606 1.01h.044c1.004.023 2.71.433 2.825 2.96 0 .01 0 .022.004.03.003.026.263 2.56-.918 3.895-.469.53-1.093.79-1.915.797H7.61c-.817-.007-1.446-.268-1.91-.797C4.52 6.568 4.773 4.022 4.777 4zm10.488 10.3c.004.193.007 1.189-.179 1.684a.498.498 0 0 1-.193.235C14.783 16.29 12.11 18 7.64 18S.495 16.293.384 16.218a.478.478 0 0 1-.193-.235c-.197-.499-.194-1.494-.19-1.688v-.011c.004-.03.004-.06.004-.093.022-.735.07-2.46 1.683-3.016a.467.467 0 0 1 .038-.011c1.683-.429 3.07-1.398 3.085-1.41a.504.504 0 0 1 .576.824c-.064.042-1.543 1.078-3.394 1.555-.866.31-.962 1.237-.988 2.087 0 .034-.004.064-.004.094-.008.335.018.853.078 1.151.606.343 2.98 1.532 6.556 1.532 3.59 0 5.95-1.185 6.553-1.528.06-.298.082-.816.078-1.152-.004-.03-.004-.06-.004-.093-.026-.85-.122-1.778-.988-2.087-1.851-.477-3.33-1.51-3.394-1.555a.504.504 0 0 1 .576-.823c.015.01 1.409.98 3.085 1.409l.037.01c1.613.552 1.662 2.278 1.684 3.016 0 .034.004.064.004.093v.012zm6.551-2.805c0 .138-.05.256-.15.356-.099.1-.217.15-.354.15h-.69a.484.484 0 0 1-.356-.15.487.487 0 0 1-.149-.356V7.768h-3.66a.484.484 0 0 1-.355-.15.487.487 0 0 1-.149-.356v-.58c0-.138.05-.256.15-.356.099-.1.217-.15.354-.15h3.66v-3.67c0-.138.05-.256.15-.356.099-.1.217-.15.354-.15h.691c.137 0 .255.05.355.15.1.1.15.218.15.356v3.67h3.678c.137 0 .255.05.355.15.1.1.149.218.149.356v.58c0 .138-.05.256-.15.356-.099.1-.217.15-.354.15h-3.679v3.726z"/>
</svg>
