<svg xmlns="http://www.w3.org/2000/svg" width="18.193" height="17.399" viewBox="0 0 18.193 17.399"><defs><style>.a{fill:none;stroke:#FFFFFF;}</style></defs><g transform="translate(-1345.519 -884.5)"><path class="a" d="M1352.491,901.4h-2.733a1.371,1.371,0,0,1-1.367-1.367v-5.466s-1.486.478-1.981,0a1.365,1.365,0,0,1,0-1.913l7.243-7.243a1.321,1.321,0,0,1,1.913,0l7.243,7.243a1.335,1.335,0,0,1,0,1.913c-.53.478-2.118,0-2.118,0v5.466a1.371,1.371,0,0,1-1.367,1.367h-2.733v-3.417a2.05,2.05,0,0,0-4.1,0V901.4Z" transform="translate(0 0)"/></g></svg>