<svg xmlns="http://www.w3.org/2000/svg" width="25" height="22" viewBox="0 0 25 22">
    <g fill="white" fill-rule="evenodd">
        <path d="M12.394 4.229l-1.139.623a.2.2 0 0 1-.293-.209l.227-1.358a.2.2 0 0 0-.053-.172l-.943-.974a.2.2 0 0 1 .115-.337l1.291-.191a.2.2 0 0 0 .151-.112l.576-1.212a.2.2 0 0 1 .362.001l.565 1.218a.2.2 0 0 0 .15.113l1.29.203a.2.2 0 0 1 .112.338l-.95.965a.2.2 0 0 0-.055.172l.216 1.36a.2.2 0 0 1-.295.206l-1.134-.633a.2.2 0 0 0-.193-.001zM22.53 19.508c-.454.344-1.05.518-1.775.518-.556 0-1.047-.155-1.458-.46l-.124-.093.493-.793.145.091c.316.199.672.3 1.059.3.363 0 .667-.099.93-.301.25-.192.371-.404.371-.65 0-.17-.06-.31-.183-.428a.657.657 0 0 0-.475-.177c-.247 0-.48.085-.713.26l-.142.107-.52-.75.172-.086c.363-.184.689-.392.97-.62.41-.34.455-.507.455-.562 0-.069 0-.229-.463-.229-.244 0-.463.067-.67.205-.207.138-.355.3-.44.481l-.072.15-.82-.37.065-.15c.159-.37.42-.667.774-.881.351-.212.754-.32 1.197-.32.401 0 .743.096 1.017.285.292.202.44.477.44.818 0 .275-.17.564-.52.876.247.088.456.223.625.403.243.262.366.587.366.968 0 .58-.237 1.055-.704 1.408zm-8.454-7.234h-2.764v-.854h.85V8.55l-.57.423-.668-.655 1.662-1.238h.056c.378 0 .595.24.595.656v3.684h.839v.854zm-7.933 7.711H2.08l.041-.201c.063-.304.13-.559.202-.755l.012-.032.022-.024c.207-.225.81-.749 1.845-1.602.728-.605.88-.96.88-1.152 0-.234-.082-.503-.726-.503-.508 0-.791.244-.891.768l-.033.171-.998-.224.018-.15c.06-.48.276-.858.644-1.122.333-.244.762-.368 1.271-.368.505 0 .931.136 1.267.403.347.277.523.632.523 1.056 0 .38-.21.786-.643 1.243-.252.257-.671.614-1.249 1.064-.295.23-.5.4-.64.523h2.739l-.22.905zm16.96-6.706h-5.759V7.543c0-.849-.701-1.543-1.558-1.543H9.214c-.857 0-1.558.694-1.558 1.543v5.736H1.897A1.893 1.893 0 0 0 0 15.157v4.965C0 21.155.854 22 1.897 22h21.206A1.893 1.893 0 0 0 25 20.122v-4.965a1.893 1.893 0 0 0-1.897-1.878z"/>
    </g>
</svg>