<svg xmlns="http://www.w3.org/2000/svg" width="14" height="10.783" viewBox="0 0 14 10.783"><defs><style>.a{fill:#FFFFFF;}</style></defs><g transform="translate(0 -58.83)"><g transform="translate(0 63.656)"><g transform="translate(0 0)"><path class="a" d="M13.435,235.318H.566a.566.566,0,0,0,0,1.131H13.435a.566.566,0,0,0,0-1.131Z" transform="translate(0 -235.318)"/></g></g><g transform="translate(0 58.83)"><g transform="translate(0 0)"><path class="a" d="M1.366,64.221,5.792,59.8a.566.566,0,0,0-.8-.8L.166,63.821a.566.566,0,0,0,0,.8l4.826,4.826a.566.566,0,0,0,.8-.8Z" transform="translate(0 -58.83)"/></g></g></g></svg>