<svg xmlns="http://www.w3.org/2000/svg" width="19" height="27" viewBox="0 0 19 27">
    <g fill="none" fill-rule="evenodd" transform="translate(-7 -3)">
        <circle cx="16" cy="16" r="16" fill="none"/>
        <path fill="#00C689" d="M16.098 22.765c3.198 0 5.79-2.581 5.79-5.765V8.765C21.888 5.58 19.296 3 16.098 3s-5.79 2.58-5.79 5.765V17c0 3.184 2.592 5.765 5.79 5.765zm9.098-4.118h-1.654c-.754 3.3-3.902 5.765-7.444 5.765s-6.69-2.465-7.444-5.765H7c.73 3.952 4.188 7.008 8.27 7.375v1.684h-.826a.826.826 0 0 0-.827.823c0 .456.37.824.827.824h3.308a.825.825 0 0 0 .827-.824.826.826 0 0 0-.827-.823h-.827v-1.684c4.083-.367 7.54-3.423 8.271-7.375z"/>
    </g>
</svg>
