<svg xmlns="http://www.w3.org/2000/svg" width="56" height="56" viewBox="0 0 56 56">
    <g fill="none" fill-rule="nonzero">
        <path fill="#FFF" d="M19.667 43.904l-8.355 4.557c-.48.268-.93.588-1.34.954A27.87 27.87 0 0 0 28 56c6.82 0 13.067-2.44 17.924-6.492a7.412 7.412 0 0 0-1.473-.987l-8.946-4.472a3.412 3.412 0 0 1-1.886-3.052v-3.51c.251-.286.539-.654.846-1.088a20.585 20.585 0 0 0 2.781-5.604c1.148-.354 1.993-1.414 1.993-2.673v-3.747c0-.824-.367-1.56-.936-2.076v-5.417S39.416 8.454 28 8.454c-11.414 0-10.302 8.428-10.302 8.428V22.3a2.794 2.794 0 0 0-.936 2.076v3.747c0 .986.519 1.855 1.295 2.357.937 4.075 3.388 7.008 3.388 7.008v3.424a3.415 3.415 0 0 1-1.78 2.993z"/>
        <path fill="#90DFAA" d="M28.479.004C13.017-.26.269 12.06.004 27.521c-.15 8.767 3.758 16.646 9.979 21.886a7.44 7.44 0 0 1 1.328-.945l8.355-4.557a3.413 3.413 0 0 0 1.778-2.995v-3.424s-2.453-2.933-3.388-7.008a2.81 2.81 0 0 1-1.295-2.358v-3.746c0-.824.367-1.56.936-2.076V16.88S16.584 8.453 28 8.453c11.414 0 10.302 8.428 10.302 8.428v5.417c.57.515.936 1.252.936 2.076v3.746c0 1.26-.845 2.32-1.993 2.674a20.585 20.585 0 0 1-2.78 5.604c-.308.434-.596.802-.847 1.088v3.51a3.41 3.41 0 0 0 1.886 3.052l8.946 4.472c.527.27 1.02.6 1.469.985 6.033-5.031 9.93-12.555 10.076-21.026C56.26 13.017 43.94.269 28.479.004z"/>
    </g>
</svg>
