<svg xmlns="http://www.w3.org/2000/svg" width="22.67" height="29.137" viewBox="0 0 22.67 29.137"><defs><style>.a{fill:#fd715c;}.b{fill:#ee5646;}.c{fill:#fed066;}.d{fill:#f5b556;}.e{fill:rgba(254,208,102,0.3);}.f{fill:#fff;}</style></defs><g transform="translate(-0.001 0)"><path class="a" d="M5.725,247.779l-1.735-3.3-3.727.193a.249.249,0,0,1-.229-.371l7.017-12.32,6.127,3.49-7.017,12.32A.249.249,0,0,1,5.725,247.779Zm0,0" transform="translate(0 -218.775)"/><path class="b" d="M71.833,276.7l-1.735-3.3,6.125-10.753,3.064,1.745-7.017,12.32A.249.249,0,0,1,71.833,276.7Zm0,0" transform="translate(-66.107 -247.694)"/><path class="b" d="M174.251,247.779l1.735-3.3,3.727.193a.249.249,0,0,0,.229-.371l-7.018-12.32-6.127,3.49,7.017,12.32A.249.249,0,0,0,174.251,247.779Zm0,0" transform="translate(-157.304 -218.775)"/><path class="a" d="M174.251,276.7l1.735-3.3-6.125-10.753-3.064,1.745,7.017,12.32A.249.249,0,0,0,174.251,276.7Zm0,0" transform="translate(-157.304 -247.694)"/><path class="c" d="M20.422.557l.961-.423a1.575,1.575,0,0,1,1.866.46l.654.821A1.575,1.575,0,0,0,25.027,2l1.047.072a1.575,1.575,0,0,1,1.439,1.275l.2,1.031a1.574,1.574,0,0,0,.721,1.045l.894.55a1.575,1.575,0,0,1,.682,1.8l-.3,1a1.575,1.575,0,0,0,.153,1.26l.536.9a1.575,1.575,0,0,1-.232,1.908l-.736.748a1.575,1.575,0,0,0-.45,1.187l.055,1.048a1.575,1.575,0,0,1-1.092,1.582l-1,.321a1.576,1.576,0,0,0-.95.842l-.439.954a1.575,1.575,0,0,1-1.7.893l-1.034-.181a1.575,1.575,0,0,0-1.232.3l-.832.64a1.575,1.575,0,0,1-1.922,0l-.832-.64a1.574,1.574,0,0,0-1.232-.3l-1.034.181a1.575,1.575,0,0,1-1.7-.893l-.439-.954a1.576,1.576,0,0,0-.95-.842l-1-.321a1.575,1.575,0,0,1-1.092-1.582l.055-1.048a1.576,1.576,0,0,0-.45-1.187l-.736-.748a1.575,1.575,0,0,1-.232-1.908l.536-.9a1.575,1.575,0,0,0,.153-1.26l-.3-1a1.575,1.575,0,0,1,.682-1.8l.894-.55a1.574,1.574,0,0,0,.721-1.045l.2-1.031A1.575,1.575,0,0,1,13.5,2.077L14.547,2a1.575,1.575,0,0,0,1.124-.59l.654-.821a1.575,1.575,0,0,1,1.866-.46l.961.423A1.574,1.574,0,0,0,20.422.557Zm0,0" transform="translate(-8.451 0)"/><path class="c" d="M20.422.557l.961-.423a1.575,1.575,0,0,1,1.866.46l.654.821A1.575,1.575,0,0,0,25.027,2l1.047.072a1.575,1.575,0,0,1,1.439,1.275l.2,1.031a1.574,1.574,0,0,0,.721,1.045l.894.55a1.575,1.575,0,0,1,.682,1.8l-.3,1a1.575,1.575,0,0,0,.153,1.26l.536.9a1.575,1.575,0,0,1-.232,1.908l-.736.748a1.575,1.575,0,0,0-.45,1.187l.055,1.048a1.575,1.575,0,0,1-1.092,1.582l-1,.321a1.576,1.576,0,0,0-.95.842l-.439.954a1.575,1.575,0,0,1-1.7.893l-1.034-.181a1.575,1.575,0,0,0-1.232.3l-.832.64a1.575,1.575,0,0,1-1.922,0l-.832-.64a1.574,1.574,0,0,0-1.232-.3l-1.034.181a1.575,1.575,0,0,1-1.7-.893l-.439-.954a1.576,1.576,0,0,0-.95-.842l-1-.321a1.575,1.575,0,0,1-1.092-1.582l.055-1.048a1.576,1.576,0,0,0-.45-1.187l-.736-.748a1.575,1.575,0,0,1-.232-1.908l.536-.9a1.575,1.575,0,0,0,.153-1.26l-.3-1a1.575,1.575,0,0,1,.682-1.8l.894-.55a1.574,1.574,0,0,0,.721-1.045l.2-1.031A1.575,1.575,0,0,1,13.5,2.077L14.547,2a1.575,1.575,0,0,0,1.124-.59l.654-.821a1.575,1.575,0,0,1,1.866-.46l.961.423A1.574,1.574,0,0,0,20.422.557Zm0,0" transform="translate(-8.451 0)"/><path class="d" d="M83.844,66.293a7.407,7.407,0,1,1-7.407-7.407A7.407,7.407,0,0,1,83.844,66.293Zm0,0" transform="translate(-65.102 -55.535)"/><path class="e" d="M174.085,58.891a7.437,7.437,0,0,0-1.514.155,7.408,7.408,0,0,1,0,14.5,7.407,7.407,0,1,0,1.514-14.658Zm0,0" transform="translate(-162.749 -55.539)"/><path class="d" d="M225.957,10.942l-.536-.9a1.575,1.575,0,0,1-.153-1.26l.3-1a1.575,1.575,0,0,0-.682-1.8L224,5.427a1.575,1.575,0,0,1-.721-1.045l-.2-1.031a1.575,1.575,0,0,0-1.439-1.275L220.592,2a1.575,1.575,0,0,1-1.124-.59l-.654-.821a1.575,1.575,0,0,0-1.866-.46l-.62.273a11.228,11.228,0,0,1,1.688,19.817,1.568,1.568,0,0,1,.361.02l1.034.181a1.575,1.575,0,0,0,1.7-.893l.439-.954a1.575,1.575,0,0,1,.95-.842l1-.321a1.575,1.575,0,0,0,1.092-1.582l-.055-1.048a1.575,1.575,0,0,1,.45-1.187l.736-.748A1.575,1.575,0,0,0,225.957,10.942Zm0,0" transform="translate(-204.016 0)"/><path class="f" d="M-1.8-4.672a3.217,3.217,0,0,0,.56-.048,1.748,1.748,0,0,0,.492-.16,1.261,1.261,0,0,0,.376-.288.882.882,0,0,0,.2-.432H.576V0h-1V-3.952H-1.8Z" transform="translate(12.001 14)"/></g></svg>