<svg xmlns="http://www.w3.org/2000/svg" width="22.67" height="29.137" viewBox="0 0 22.67 29.137"><defs><style>.a{fill:#fd715c;}.b{fill:#ee5646;}.c{fill:#fed066;}.d{fill:#a17e6f;}.e{fill:#8e694f;}.f{fill:rgba(52,39,38,0.37);}.g,.h{fill:#fff;}.g{opacity:0.256;}</style></defs><g transform="translate(-0.001 0)"><path class="a" d="M5.725,247.779l-1.735-3.3-3.727.193a.249.249,0,0,1-.229-.371l7.017-12.32,6.127,3.49-7.017,12.32A.249.249,0,0,1,5.725,247.779Zm0,0" transform="translate(0 -218.775)"/><path class="b" d="M71.833,276.7l-1.735-3.3,6.125-10.753,3.064,1.745-7.017,12.32A.249.249,0,0,1,71.833,276.7Zm0,0" transform="translate(-66.107 -247.694)"/><path class="b" d="M174.251,247.779l1.735-3.3,3.727.193a.249.249,0,0,0,.229-.371l-7.018-12.32-6.127,3.49,7.017,12.32A.249.249,0,0,0,174.251,247.779Zm0,0" transform="translate(-157.304 -218.775)"/><path class="a" d="M174.251,276.7l1.735-3.3-6.125-10.753-3.064,1.745,7.017,12.32A.249.249,0,0,0,174.251,276.7Zm0,0" transform="translate(-157.304 -247.694)"/><path class="c" d="M20.422.557l.961-.423a1.575,1.575,0,0,1,1.866.46l.654.821A1.575,1.575,0,0,0,25.027,2l1.047.072a1.575,1.575,0,0,1,1.439,1.275l.2,1.031a1.574,1.574,0,0,0,.721,1.045l.894.55a1.575,1.575,0,0,1,.682,1.8l-.3,1a1.575,1.575,0,0,0,.153,1.26l.536.9a1.575,1.575,0,0,1-.232,1.908l-.736.748a1.575,1.575,0,0,0-.45,1.187l.055,1.048a1.575,1.575,0,0,1-1.092,1.582l-1,.321a1.576,1.576,0,0,0-.95.842l-.439.954a1.575,1.575,0,0,1-1.7.893l-1.034-.181a1.575,1.575,0,0,0-1.232.3l-.832.64a1.575,1.575,0,0,1-1.922,0l-.832-.64a1.574,1.574,0,0,0-1.232-.3l-1.034.181a1.575,1.575,0,0,1-1.7-.893l-.439-.954a1.576,1.576,0,0,0-.95-.842l-1-.321a1.575,1.575,0,0,1-1.092-1.582l.055-1.048a1.576,1.576,0,0,0-.45-1.187l-.736-.748a1.575,1.575,0,0,1-.232-1.908l.536-.9a1.575,1.575,0,0,0,.153-1.26l-.3-1a1.575,1.575,0,0,1,.682-1.8l.894-.55a1.574,1.574,0,0,0,.721-1.045l.2-1.031A1.575,1.575,0,0,1,13.5,2.077L14.547,2a1.575,1.575,0,0,0,1.124-.59l.654-.821a1.575,1.575,0,0,1,1.866-.46l.961.423A1.574,1.574,0,0,0,20.422.557Zm0,0" transform="translate(-8.451 0)"/><path class="d" d="M20.422.557l.961-.423a1.575,1.575,0,0,1,1.866.46l.654.821A1.575,1.575,0,0,0,25.027,2l1.047.072a1.575,1.575,0,0,1,1.439,1.275l.2,1.031a1.574,1.574,0,0,0,.721,1.045l.894.55a1.575,1.575,0,0,1,.682,1.8l-.3,1a1.575,1.575,0,0,0,.153,1.26l.536.9a1.575,1.575,0,0,1-.232,1.908l-.736.748a1.575,1.575,0,0,0-.45,1.187l.055,1.048a1.575,1.575,0,0,1-1.092,1.582l-1,.321a1.576,1.576,0,0,0-.95.842l-.439.954a1.575,1.575,0,0,1-1.7.893l-1.034-.181a1.575,1.575,0,0,0-1.232.3l-.832.64a1.575,1.575,0,0,1-1.922,0l-.832-.64a1.574,1.574,0,0,0-1.232-.3l-1.034.181a1.575,1.575,0,0,1-1.7-.893l-.439-.954a1.576,1.576,0,0,0-.95-.842l-1-.321a1.575,1.575,0,0,1-1.092-1.582l.055-1.048a1.576,1.576,0,0,0-.45-1.187l-.736-.748a1.575,1.575,0,0,1-.232-1.908l.536-.9a1.575,1.575,0,0,0,.153-1.26l-.3-1a1.575,1.575,0,0,1,.682-1.8l.894-.55a1.574,1.574,0,0,0,.721-1.045l.2-1.031A1.575,1.575,0,0,1,13.5,2.077L14.547,2a1.575,1.575,0,0,0,1.124-.59l.654-.821a1.575,1.575,0,0,1,1.866-.46l.961.423A1.574,1.574,0,0,0,20.422.557Zm0,0" transform="translate(-8.451 0)"/><path class="e" d="M83.844,66.293a7.407,7.407,0,1,1-7.407-7.407A7.407,7.407,0,0,1,83.844,66.293Zm0,0" transform="translate(-65.102 -55.535)"/><path class="f" d="M174.085,58.891a7.437,7.437,0,0,0-1.514.155,7.408,7.408,0,0,1,0,14.5,7.407,7.407,0,1,0,1.514-14.658Zm0,0" transform="translate(-162.749 -55.539)"/><path class="g" d="M225.957,10.942l-.536-.9a1.575,1.575,0,0,1-.153-1.26l.3-1a1.575,1.575,0,0,0-.682-1.8L224,5.427a1.575,1.575,0,0,1-.721-1.045l-.2-1.031a1.575,1.575,0,0,0-1.439-1.275L220.592,2a1.575,1.575,0,0,1-1.124-.59l-.654-.821a1.575,1.575,0,0,0-1.866-.46l-.62.273a11.228,11.228,0,0,1,1.688,19.817,1.568,1.568,0,0,1,.361.02l1.034.181a1.575,1.575,0,0,0,1.7-.893l.439-.954a1.575,1.575,0,0,1,.95-.842l1-.321a1.575,1.575,0,0,0,1.092-1.582l-.055-1.048a1.575,1.575,0,0,1,.45-1.187l.736-.748A1.575,1.575,0,0,0,225.957,10.942Zm0,0" transform="translate(-204.016 0)"/><path class="h" d="M-.4-3.28a2.113,2.113,0,0,0,.448-.032,1.247,1.247,0,0,0,.4-.14.782.782,0,0,0,.284-.276A.811.811,0,0,0,.84-4.16.731.731,0,0,0,.6-4.736a.912.912,0,0,0-.628-.216.856.856,0,0,0-.416.1A.854.854,0,0,0-.74-4.6a1.166,1.166,0,0,0-.172.368,1.384,1.384,0,0,0-.048.42h-.912a2.311,2.311,0,0,1,.152-.756,1.9,1.9,0,0,1,.372-.6,1.652,1.652,0,0,1,.572-.4,1.912,1.912,0,0,1,.76-.144,2.2,2.2,0,0,1,.644.1,1.883,1.883,0,0,1,.568.28,1.373,1.373,0,0,1,.4.468,1.36,1.36,0,0,1,.152.652,1.4,1.4,0,0,1-.192.74,1.1,1.1,0,0,1-.6.46V-3a1.156,1.156,0,0,1,.748.476,1.562,1.562,0,0,1,.268.924,1.563,1.563,0,0,1-.16.716,1.626,1.626,0,0,1-.432.536,2,2,0,0,1-.632.34,2.388,2.388,0,0,1-.76.12A2.367,2.367,0,0,1-.86-.028a1.637,1.637,0,0,1-.608-.4A1.71,1.71,0,0,1-1.84-1.04a2.513,2.513,0,0,1-.136-.8h.912a1.267,1.267,0,0,0,.252.852.961.961,0,0,0,.8.34,1.144,1.144,0,0,0,.764-.26.915.915,0,0,0,.308-.74.926.926,0,0,0-.128-.52A.828.828,0,0,0,.6-2.46a1.36,1.36,0,0,0-.468-.124A4.382,4.382,0,0,0-.4-2.6Z" transform="translate(11.477 14)"/></g></svg>