<svg xmlns="http://www.w3.org/2000/svg" width="14" height="14" viewBox="0 0 14 14">
    <g fill="none" fill-rule="evenodd">
        <path fill="#00C689" fill-rule="nonzero" d="M9.898 8.74h-.61l-.216-.208a4.995 4.995 0 0 0 1.212-3.265 5.017 5.017 0 1 0-5.017 5.017 4.995 4.995 0 0 0 3.265-1.212l.209.217v.61L12.6 13.75l1.15-1.15-3.852-3.86zm-4.63 0a3.469 3.469 0 0 1-3.474-3.473 3.469 3.469 0 0 1 3.473-3.473 3.469 3.469 0 0 1 3.474 3.473 3.469 3.469 0 0 1-3.474 3.474z"/>
        <path d="M-2-2h18v18H-2z"/>
    </g>
</svg>
