<svg xmlns="http://www.w3.org/2000/svg" width="128" height="49" viewBox="0 0 128 49">
    <g fill="none" fill-rule="evenodd">
        <path fill="#FFF" d="M59.451 20.647a.653.653 0 0 1 .18-.659.672.672 0 0 1 .489-.202h1.928c.377 0 .66.202.848.608l3.42 7.854 3.418-7.854c.189-.406.472-.608.849-.608h1.928c.188 0 .351.067.488.202a.653.653 0 0 1 .18.66l-5.167 11.678c-.171.423-.454.634-.848.634h-1.697c-.394 0-.677-.211-.848-.634L59.45 20.647zm29.396 5.751c0 .44-.017.861-.051 1.267a5.993 5.993 0 0 1-.952 2.812c-.548.844-1.298 1.512-2.249 2.001-.951.49-2.035.735-3.252.735-1.217 0-2.3-.245-3.252-.735-.951-.49-1.701-1.157-2.25-2.001a5.993 5.993 0 0 1-.95-2.812 19.165 19.165 0 0 1-.026-1.267c0-.659.008-1.09.025-1.292a6.027 6.027 0 0 1 .952-2.837c.548-.845 1.298-1.512 2.249-2.002.951-.49 2.035-.735 3.252-.735 1.217 0 2.3.245 3.252.735.951.49 1.7 1.157 2.25 2.002.548.844.865 1.79.95 2.837.035.405.052.836.052 1.292zm-8.6-3.217c-.573.405-.912 1.089-1.015 2.052-.017.169-.025.549-.025 1.14 0 .59.008.97.025 1.14.103.963.442 1.647 1.016 2.052.574.405 1.272.608 2.095.608.823 0 1.521-.203 2.095-.608.574-.405.913-1.09 1.016-2.052.034-.338.051-.718.051-1.14 0-.422-.017-.802-.051-1.14-.103-.963-.442-1.647-1.016-2.052-.574-.406-1.272-.608-2.095-.608-.823 0-1.521.202-2.095.608zm16.196 9.095a.653.653 0 0 1-.206.481.672.672 0 0 1-.488.203h-1.954a.672.672 0 0 1-.489-.203.653.653 0 0 1-.205-.481v-16.62c0-.186.068-.346.205-.481a.672.672 0 0 1 .489-.203h1.954c.188 0 .35.068.488.203a.653.653 0 0 1 .206.481v7.98l4.293-3.42c.188-.135.351-.24.488-.316a1.05 1.05 0 0 1 .514-.114h2.622a.6.6 0 0 1 .438.177c.12.118.18.262.18.43 0 .187-.095.356-.283.508l-5.99 4.762 6.555 6.207c.172.17.257.33.257.482 0 .169-.06.312-.18.43a.6.6 0 0 1-.437.178h-2.493c-.36 0-.711-.144-1.054-.43l-4.91-4.612v4.358zM118.267 20.9c1.037.912 1.556 2.22 1.556 3.926v7.449a.653.653 0 0 1-.206.481.672.672 0 0 1-.488.203h-1.954a.672.672 0 0 1-.489-.203.653.653 0 0 1-.205-.481v-.836c-.394.54-.939.97-1.633 1.292-.694.32-1.53.481-2.506.481-1.44 0-2.58-.367-3.42-1.102-.839-.735-1.259-1.685-1.259-2.85 0-1.132.407-2.031 1.221-2.698.814-.667 1.95-1.128 3.406-1.38l4.19-.71c0-.642-.218-1.12-.655-1.432-.437-.312-1.024-.468-1.76-.468-.395 0-.716.054-.965.164-.248.11-.493.275-.732.494-.258.237-.54.355-.849.355h-2.39a.58.58 0 0 1-.425-.165.455.455 0 0 1-.141-.392c.103-.524.373-1.056.81-1.596.437-.54 1.054-.993 1.85-1.356.797-.363 1.744-.545 2.841-.545 1.765 0 3.166.456 4.203 1.369zm-1.786 6.181l-3.496.608c-.686.118-1.187.292-1.504.52a1.08 1.08 0 0 0-.476.924c0 .338.176.596.527.773.351.177.793.266 1.324.266.754 0 1.405-.135 1.954-.405.548-.27.964-.621 1.247-1.052.282-.43.424-.89.424-1.38v-.254zm11.246 5.675a.672.672 0 0 1-.489.203h-1.953a.672.672 0 0 1-.489-.203.653.653 0 0 1-.205-.481v-16.62c0-.186.068-.346.205-.481a.672.672 0 0 1 .489-.203h1.953c.189 0 .352.068.489.203a.653.653 0 0 1 .206.481v16.62a.653.653 0 0 1-.206.481z"/>
        <g>
            <ellipse cx="24.357" cy="24.5" fill="#FFF" rx="24.357" ry="24.5"/>
            <path fill="#7E28E5" d="M24.357 24.5l4.564-4.592a3.214 3.214 0 0 1 4.565 0l2.282 2.296a3.26 3.26 0 0 1 0 4.592l-9.129 9.183a3.214 3.214 0 0 1-4.565 0l-9.13-9.183a3.26 3.26 0 0 1 0-4.592l2.283-2.296a3.214 3.214 0 0 1 4.565 0l4.565 4.592z"/>
            <path fill="#691BC6" d="M24.357 36.93a3.208 3.208 0 0 1-2.283-.951l-9.13-9.183a3.26 3.26 0 0 1 0-4.592l2.283-2.296a3.214 3.214 0 0 1 4.565 0l4.565 4.592v12.43z"/>
            <path fill="#7E28E5" d="M27.584 15.317a3.237 3.237 0 0 0-3.227-3.247 3.237 3.237 0 0 0-3.228 3.247 3.237 3.237 0 0 0 3.228 3.247 3.237 3.237 0 0 0 3.227-3.247z"/>
        </g>
    </g>
</svg>
