<?xml version="1.0" encoding="iso-8859-1"?>
<!-- Generator: Adobe Illustrator 19.0.0, SVG Export Plug-In . SVG Version: 6.00 Build 0)  -->
<svg version="1.1" id="Capa_1" xmlns="http://www.w3.org/2000/svg" xmlns:xlink="http://www.w3.org/1999/xlink" x="0px" y="0px"
	 viewBox="0 0 512 512" style="enable-background:new 0 0 512 512;" xml:space="preserve">
<g>
	<g>
		<path d="M432.3,62.759C432.3,62.759,432.3,62.759,432.3,62.759c0.04-1.489,0.06-2.977,0.06-4.474l-0.13-15.317H78.609v15.317
			c0,1.498,0.02,2.986,0.06,4.473c0,0.001,0,0.002,0,0.003H0l2.555,17.18c0.178,1.192,4.556,29.518,23.31,57.866
			c15.87,23.991,44.927,52.108,95.317,57.563c-0.271,0.408-0.553,0.81-0.861,1.195c-4.566,5.735-13.214,8.643-25.703,8.643v29.955
			c22.07,0,38.601-6.709,49.137-19.939c3.546-4.452,6.03-9.201,7.75-13.926c0.001,0.001,0.002,0.002,0.003,0.002
			c15.167,11.053,32.142,19.76,50.405,25.562v30.445h107.14v-30.445c18.592-5.911,35.857-14.828,51.224-26.171
			c0.001-0.001,0.002-0.002,0.003-0.003c1.726,4.926,4.265,9.891,7.962,14.535c10.535,13.23,27.067,19.939,49.138,19.939v-29.955
			c-12.418,0-21.038-2.875-25.623-8.543c-0.336-0.416-0.644-0.852-0.938-1.296c50.389-5.456,79.444-33.572,95.315-57.563
			c18.753-28.349,23.133-56.673,23.31-57.866L512,62.759H432.3z M36.711,92.717h45.273c5.192,26.27,16.236,50.473,31.702,71.181
			c0.002,0.002,0.003,0.004,0.005,0.006C64.81,153.864,44.56,115.505,36.711,92.717z M397.096,164.145
			c0.002-0.003,0.004-0.005,0.006-0.008c15.567-20.768,26.669-45.051,31.881-71.42h46.3
			C467.364,115.71,446.841,154.499,397.096,164.145z"/>
	</g>
</g>
<g>
	<g>
		<path d="M349.974,382.032v-94.769h0H160.986v94.769h-32.242v87h253.482v-87H349.974z M271.83,363.12l-16.316-8.577l-16.316,8.577
			l3.115-18.173l-13.21-12.871l18.253-2.646l8.158-16.535l8.158,16.535l18.253,2.646l-13.21,12.871L271.83,363.12z"/>
	</g>
</g>
<g>
</g>
<g>
</g>
<g>
</g>
<g>
</g>
<g>
</g>
<g>
</g>
<g>
</g>
<g>
</g>
<g>
</g>
<g>
</g>
<g>
</g>
<g>
</g>
<g>
</g>
<g>
</g>
<g>
</g>
</svg>
