<svg xmlns="http://www.w3.org/2000/svg" xmlns:xlink="http://www.w3.org/1999/xlink" width="51" height="50" viewBox="0 0 51 50"><defs><path id="b" d="M849.724 1002.26c-.515-5.445-2.848-9.76-9.205-9.76-6.358 0-10.059 3.5-10.059 10.44 0 6.94 7.549 8.06 11.397 8.21 4.307.17 8.321-4.08 7.867-8.89z"/><path id="f" d="M840.511 1011.289c-.323 0-.651 0-1.01-.025-8.847-.445-9.29-8.265-9.296-8.33a.254.254 0 01.11-.263.26.26 0 01.286 0c.086.058.13.161.109.263 0 .305.434 7.415 8.816 7.84 9.034.455 9.635-5.32 9.862-7.5 0-.185.035-.34.056-.455a.25.25 0 01.1-.17.254.254 0 01.193-.045.253.253 0 01.217.29c0 .11-.03.255-.05.425-.198 2-.814 7.97-9.393 7.97z"/><path id="c" d="M835.71 1004.13l2.383-2.3-2.383-2.61s1.631-2.04 2.484-2.05c.425 0 2.343 2.33 2.343 2.33s2.525-2.335 2.919-2.33c.394.005 1.909 1.605 1.909 2.115 0 .51-2.49 2.5-2.49 2.5s2.58 1.835 2.197 2.345c-.384.51-1.94 2.685-2.454 2.3-.515-.385-2.217-2.13-2.217-2.13s-1.788 1.785-1.974 2.125c-.187.34-2.066-1.425-2.717-2.295z"/><path id="d" d="M801.968 1007.658a.271.271 0 01-.258-.28c0-.185.212-4.53 2.358-5.095 2.02-.535 17.674-.54 22.324 0a.268.268 0 01.181.099.263.263 0 01.057.196.277.277 0 01-.298.235c-4.61-.53-20.123-.535-22.132-.01-1.465.385-1.91 3.45-1.96 4.6a.266.266 0 01-.272.255z"/><path id="e" d="M830.472 1002.637a.257.257 0 01-.258-.22 8.855 8.855 0 011.924-6.33c1.742-2.18 4.484-3.5 7.933-3.81 2.777-.25 5.05.5 6.822 2.235 2.64 2.62 3.196 6.675 3.095 7.775a.257.257 0 01-.505-.05c.086-.895-.414-4.855-2.943-7.37-1.637-1.62-3.788-2.325-6.408-2.085-3.353.305-5.903 1.5-7.575 3.62a8.314 8.314 0 00-1.817 5.94.253.253 0 01-.048.19.258.258 0 01-.17.1z"/><path id="a" d="M800.313 1035.854s-1.924-33.275.147-35.22c2.07-1.945 39.754-1.975 40.396.215.641 2.19.798 35.5 0 39.14-.677 3.09-28.964 1.295-37.594.67-1.439-.105-2.63-1.735-2.853-3.905z"/><path id="g" d="M826.798 1011.162c-.278-.105-2.131.5-3.974 2.035-2.525 2.095-4.545 3.22-7.878 3.18h.622c-1.01-.045-1.657 0-1.788.74 0 0 .06 5.295.03 5.77-.03.475-.131.845.41.94.1 0 .666.035 1.448.05 3.823.07 4.949 1.41 7.913 3.795a6.45 6.45 0 002.646 1.38c1.096.22 1.08-1.06 1.086-1.81v-4.56c0-2.37 0-4.74.03-7.11 0-.885-.056-1.755-.035-2.635.03-.54.12-1.535-.51-1.775z"/><path id="h" d="M812.671 1016.83h-2.762c-2.05.145-3.454.861-3.297 3.28.172 2.609 1.212 3.48 3.535 3.535.398 0 2.146 0 2.524-.04z"/><path id="i" d="M811.87 1024.946a1.06 1.06 0 00-.364 0h-1.308a.274.274 0 00-.198.079.269.269 0 00-.08.196c.035 1.745.237 7.81 1.394 7.81.651 0 2.373.345 3.383-.065.283-.115.257-.9.222-1.5s-.833-1.175-1.474-2.43a9.615 9.615 0 01-1.01-2.975c-.086-.36-.106-.89-.566-1.115z"/><path id="j" d="M832.214 1017.855a6.932 6.932 0 00-1.01-1.66c-.132-.195-.556-.695-.9-.695a.302.302 0 00-.257.2c-.116.24.06.43.228.575.185.149.354.316.505.5a6.399 6.399 0 010 7.6 3.41 3.41 0 01-.505.5c-.167.145-.344.335-.228.575.04.11.14.189.258.2.323 0 .747-.525.894-.7a6.932 6.932 0 001.01-1.66 6.868 6.868 0 000-5.455z"/><path id="k" d="M835.435 1016.04a11.756 11.756 0 00-1.691-2.82c-.243-.295-.97-1.115-1.359-1.14-.116 0-.247 0-.328.135-.212.4.121.675.404.925.367.33.705.69 1.01 1.075a11.548 11.548 0 012.12 6.445 11.548 11.548 0 01-2.12 6.445c-.25.318-.532.61-.843.87-.283.25-.677.635-.384 1 .06.09.163.144.273.14.358 0 .974-.69 1.212-1a11.756 11.756 0 001.691-2.82 11.65 11.65 0 000-9.25z"/></defs><use fill="#b1b1fa" xlink:href="#a" transform="translate(-799 -992)"/><use fill="#fabb24" xlink:href="#b" transform="translate(-799 -992)"/><use fill="#ffecb4" xlink:href="#c" transform="translate(-799 -992)"/><use fill="#d5d5ff" xlink:href="#d" transform="translate(-799 -992)"/><use fill="#ffecb4" xlink:href="#e" transform="translate(-799 -992)"/><use fill="#f48f10" xlink:href="#f" transform="translate(-799 -992)"/><use fill="#d5d5ff" xlink:href="#g" transform="translate(-799 -992)"/><use fill="#d5d5ff" xlink:href="#h" transform="translate(-799 -992)"/><use fill="#d5d5ff" xlink:href="#i" transform="translate(-799 -992)"/><use fill="#d5d5ff" xlink:href="#j" transform="translate(-799 -992)"/><use fill="#d5d5ff" xlink:href="#k" transform="translate(-799 -992)"/></svg>