<svg width="20" height="20" viewBox="0 0 20 20" xmlns="http://www.w3.org/2000/svg"><g fill="none"><path d="M10 0L8.828 1.943 10 3.555l4.555 1.89 2.238-1.066.247-1.42C15.237 1.157 12.746 0 10 0z" fill="#FF4B00"/><path d="M17.04 2.96l-2.485 2.485L16.445 10l1.868 1.172L20 10c0-2.746-1.156-5.237-2.96-7.04z" fill="#FF9F00"/><path d="M16.445 10l-1.89 4.555.114 2.458 2.371.027C18.844 15.237 20 12.746 20 10h-3.555z" fill="#6B0"/><path d="M14.555 14.555L10 16.445l-1.172 1.941L10 20c2.746 0 5.237-1.156 7.04-2.96l-2.485-2.485z" fill="#00CC71"/><path d="M5.445 14.555l-2.311-.032-.174 2.517C4.763 18.844 7.254 20 10 20v-3.555l-4.555-1.89z" fill="#0095FF"/><path d="M3.555 10L1.833 8.828 0 10c0 2.746 1.156 5.237 2.96 7.04l2.485-2.485L3.555 10z" fill="#6B77E8"/><path d="M4.452 3.28L2.96 2.96C1.156 4.763 0 7.254 0 10h3.555l1.89-4.555-.993-2.165z" fill="#B760EA"/><path d="M10 3.555V0C7.254 0 4.763 1.156 2.96 2.96l2.485 2.485A6.425 6.425 0 0110 3.555z" fill="#FF193D"/><path d="M10 3.555L8.828 5.312 10 7.07l2.07.86 2.325-1.153.16-1.332A6.425 6.425 0 0010 3.555z" fill="#FF7816"/><path d="M14.555 5.445l-2.484 2.484L12.93 10l1.625 1.172L16.445 10a6.425 6.425 0 00-1.89-4.555z" fill="#FDBF00"/><path d="M12.93 10l-.86 2.07.278 1.45 2.207 1.035A6.425 6.425 0 0016.445 10H12.93z" fill="#7D0"/><path d="M12.07 12.07l-2.07.86-1.172 1.83L10 16.446a6.425 6.425 0 004.555-1.89l-2.484-2.484z" fill="#00DD7B"/><path d="M7.93 12.07l-2.495.152.01 2.333A6.425 6.425 0 0010 16.445V12.93l-2.07-.86z" fill="#3AAAFF"/><path d="M7.07 10L5.435 8.828 3.555 10c0 1.777.723 3.388 1.89 4.555l2.484-2.484L7.07 10z" fill="#7984EB"/><path d="M7.803 5.459l-2.358-.014A6.425 6.425 0 003.555 10H7.07l.86-2.07-.127-2.471z" fill="#CB75F6"/><path d="M5.445 5.445l2.484 2.484L10 7.07V3.555a6.425 6.425 0 00-4.555 1.89z" fill="#FF4949"/><path d="M12.07 7.93A2.92 2.92 0 0010 7.07L8.828 8.224 10 10l2.207-1.035-.136-1.036z" fill="#FF9F00"/><path d="M12.93 10a2.92 2.92 0 00-.86-2.07L10 10l1.868 1.172L12.93 10z" fill="#FFD400"/><path d="M12.07 12.07c.531-.53.86-1.262.86-2.07H10l1.035 2.207 1.036-.136z" fill="#89F900"/><path d="M10 10l-1.172 1.648L10 12.93a2.92 2.92 0 002.07-.86L10 10z" fill="#00EE84"/><path d="M10 10l-1.758.586-.313 1.485c.53.53 1.263.859 2.071.859V10z" fill="#73BCFF"/><path d="M7.07 10c0 .808.329 1.54.86 2.07L10 10l-1.721-.586L7.07 10z" fill="#979FEF"/><path d="M7.93 7.93A2.92 2.92 0 007.07 10H10l-.586-1.758L7.93 7.93z" fill="#DA90F8"/><path d="M10 7.07a2.92 2.92 0 00-2.07.86L10 10V7.07z" fill="#FF6C6C"/></g></svg>