<svg xmlns="http://www.w3.org/2000/svg" xmlns:xlink="http://www.w3.org/1999/xlink" width="50" height="50" viewBox="0 0 50 50"><defs><path id="n" d="M601.326 1021.256c-2.045 0-3.695-.045-4-.18a.26.26 0 01.22-.465c.585.23 8.125.105 12.745 0a.26.26 0 010 .5c-1.225.025-5.625.145-8.965.145z"/><path id="a" d="M626.417 1005.505c-.37-1.065-20.915-12.775-22.655-13.235h-.05c-1.735.46-22.3 12.17-22.67 13.235-.37 1.065-.625 8 .335 10.435.96 2.435 22.35 25.64 22.35 25.64s21.395-23.23 22.35-25.64c.955-2.41.71-9.395.34-10.435z"/><path id="c" d="M603.332 1041.337a.26.26 0 01-.2-.095c-1.795-2.24-7.805-20.74-8.06-21.52a.262.262 0 01.5-.16c.06.19 6.235 19.17 7.97 21.355a.26.26 0 01-.2.42z"/><path id="d" d="M595.115 1018.5a.26.26 0 01-.25-.194c-.535-2.14-.03-9.61 0-9.925a.255.255 0 01.275-.24.26.26 0 01.24.275c0 .075-.5 7.7 0 9.765a.26.26 0 01-.19.315z"/><path id="e" d="M595.11 1007.47a.26.26 0 01-.246-.345c.335-.925 7.635-13.34 7.93-13.865a.26.26 0 11.445.26c-2.105 3.585-7.625 13.05-7.89 13.78a.26.26 0 01-.24.17z"/><path id="f" d="M593.171 1007.793c-3.11 0-10.385-.7-11.32-1.385a.26.26 0 01.305-.405c.84.6 11.06 1.625 12.15 1.205a.267.267 0 11.185.5 5.08 5.08 0 01-1.32.085z"/><path id="g" d="M593.677 1020.765c-2.91 0-10.175-2.905-10.79-3.68a.26.26 0 11.405-.32c.695.87 9.41 4.09 11 3.4a.27.27 0 11.205.5 2.17 2.17 0 01-.82.1z"/><path id="h" d="M603.885 1041.337a.26.26 0 01-.2-.42c1.74-2.185 7.91-21.165 7.975-21.355a.262.262 0 01.5.16c-.27.78-6.275 19.28-8.075 21.515a.26.26 0 01-.2.1z"/><path id="i" d="M612.113 1018.496h-.065a.26.26 0 01-.19-.315c.5-2.065 0-9.69 0-9.765a.26.26 0 01.428-.213.26.26 0 01.087.178c0 .315.53 7.785 0 9.925a.26.26 0 01-.26.19z"/><path id="j" d="M612.11 1007.465a.26.26 0 01-.245-.17c-.26-.73-5.78-10.195-7.865-13.795a.26.26 0 01.445-.26c.29.54 7.555 12.955 7.91 13.88a.26.26 0 01-.245.345z"/><path id="k" d="M614.044 1007.794a5.075 5.075 0 01-1.32-.1.267.267 0 11.185-.5c1.09.435 11.31-.59 12.15-1.19a.26.26 0 11.305.415c-.935.675-8.21 1.375-11.32 1.375z"/><path id="l" d="M613.543 1020.76c-.28.012-.561-.03-.825-.125a.27.27 0 01.205-.5c1.605.68 10.315-2.53 11-3.4a.26.26 0 01.405.32c-.615.8-7.875 3.705-10.785 3.705z"/><path id="m" d="M597.341 1007.82h-1a.26.26 0 01-.136-.46.255.255 0 01.191-.055c1.165.125 14.195-.33 14.33-.335.141 0 .257.11.265.25a.26.26 0 01-.25.265c-.44.015-10.13.335-13.4.335z"/><path id="b" d="M622.96 1017.85c-2.645.895-5.28 1.845-7.96 2.595-1.28.355-2.62.705-3.9.47-2.62.64-5.53.4-8.2.39-2.165 0-4.7.33-6.8-.385a.97.97 0 01-.78.17 45.375 45.375 0 01-13.79-4.85c2.165 3.595 22.195 25.34 22.195 25.34s17.82-19.345 21.66-24.575z"/><path id="o" d="M579.452 1041.997h-.08a.26.26 0 01-.17-.325c.235-.74 1.84-2.535 3.26-4.12a23.7 23.7 0 001.84-2.175.262.262 0 01.46.25c-.582.8-1.22 1.56-1.91 2.27-1.245 1.39-2.95 3.295-3.15 3.93a.26.26 0 01-.25.17z"/><path id="p" d="M583.854 1041.786h-.045a.26.26 0 01-.215-.3c.125-.77 1-2.07 1.735-3.22.376-.537.71-1.102 1-1.69a.266.266 0 01.5.18 12.385 12.385 0 01-1.07 1.795c-.69 1.05-1.55 2.355-1.655 3a.26.26 0 01-.25.235z"/><path id="q" d="M579.39 1038a.26.26 0 01-.236-.37c.32-.71 1.5-1.74 2.5-2.646.51-.418.986-.874 1.425-1.365a.262.262 0 11.425.305 12.4 12.4 0 01-1.5 1.45c-.94.83-2.115 1.865-2.39 2.47a.26.26 0 01-.225.155z"/><path id="r" d="M628.542 1042.002a.26.26 0 01-.25-.185c-.2-.635-1.905-2.54-3.15-3.925a20.859 20.859 0 01-1.91-2.275.262.262 0 01.46-.25 23.684 23.684 0 001.84 2.175c1.42 1.585 3.025 3.375 3.26 4.12a.26.26 0 01-.17.325z"/><path id="s" d="M624.146 1041.78a.26.26 0 01-.255-.22c-.105-.66-.965-1.964-1.655-3a12.4 12.4 0 01-1.07-1.794.266.266 0 11.5-.18c.29.588.623 1.153 1 1.69.755 1.15 1.61 2.45 1.735 3.22a.26.26 0 01-.215.3z"/><path id="t" d="M628.614 1038a.26.26 0 01-.235-.156c-.275-.605-1.45-1.64-2.39-2.47-.54-.44-1.042-.925-1.5-1.45a.262.262 0 11.425-.305c.44.491.915.948 1.425 1.365 1.03.91 2.2 1.94 2.5 2.645a.26.26 0 01-.13.345.255.255 0 01-.095.025z"/><path id="u" d="M584.532 998.81a.26.26 0 01-.23-.136 23.708 23.708 0 00-1.84-2.17c-1.42-1.59-3.03-3.38-3.26-4.125a.262.262 0 11.5-.155c.2.635 1.905 2.54 3.15 3.93.69.71 1.328 1.47 1.91 2.27a.26.26 0 01-.23.385z"/><path id="v" d="M586.584 997.634a.26.26 0 01-.245-.17 12.79 12.79 0 00-1-1.69c-.755-1.15-1.61-2.45-1.735-3.22a.26.26 0 01.215-.3.255.255 0 01.3.215c.105.66.965 1.965 1.655 3 .406.568.764 1.168 1.07 1.795a.26.26 0 01-.155.335.255.255 0 01-.105.035z"/><path id="w" d="M583.308 1000.538a.26.26 0 01-.21-.11 12.77 12.77 0 00-1.425-1.365c-1.03-.91-2.2-1.94-2.5-2.645a.26.26 0 11.475-.215c.255.61 1.425 1.645 2.355 2.475.54.44 1.042.926 1.5 1.45a.26.26 0 01-.21.41z"/><path id="x" d="M623.462 998.804a.26.26 0 01-.23-.385 20.846 20.846 0 011.915-2.27c1.245-1.39 2.95-3.295 3.15-3.925a.262.262 0 01.5.155c-.235.74-1.845 2.53-3.265 4.12a23.702 23.702 0 00-1.84 2.175.26.26 0 01-.23.13z"/><path id="y" d="M621.411 997.63a.26.26 0 01-.09 0 .26.26 0 01-.155-.334 12.38 12.38 0 011.07-1.795c.69-1.05 1.55-2.355 1.655-3a.26.26 0 01.5.085c-.125.77-1 2.07-1.735 3.22-.376.537-.71 1.102-1 1.69a.26.26 0 01-.245.135z"/><path id="z" d="M624.698 1000.543a.26.26 0 01-.21-.41c.458-.524.96-1.01 1.5-1.45.94-.83 2.115-1.865 2.39-2.47a.26.26 0 11.475.215c-.32.71-1.5 1.74-2.5 2.645-.51.416-.986.87-1.425 1.36a.26.26 0 01-.23.11z"/></defs><use fill="#c5e9ff" xlink:href="#a" transform="translate(-579 -992)"/><use fill="#90cbf8" xlink:href="#b" transform="translate(-579 -992)"/><use fill="#5eb0fa" xlink:href="#c" transform="translate(-579 -992)"/><use fill="#90cbf8" xlink:href="#d" transform="translate(-579 -992)"/><use fill="#f8fafb" xlink:href="#e" transform="translate(-579 -992)"/><use fill="#f8fafb" xlink:href="#f" transform="translate(-579 -992)"/><use fill="#5eb0fa" xlink:href="#g" transform="translate(-579 -992)"/><use fill="#5eb0fa" xlink:href="#h" transform="translate(-579 -992)"/><use fill="#90cbf8" xlink:href="#i" transform="translate(-579 -992)"/><use fill="#f8fafb" xlink:href="#j" transform="translate(-579 -992)"/><use fill="#f8fafb" xlink:href="#k" transform="translate(-579 -992)"/><use fill="#5eb0fa" xlink:href="#l" transform="translate(-579 -992)"/><use fill="#f8fafb" xlink:href="#m" transform="translate(-579 -992)"/><use fill="#5eb0fa" xlink:href="#n" transform="translate(-579 -992)"/><g fill="#c5e9ff" transform="translate(-579 -992)"><use xlink:href="#o"/><use xlink:href="#p"/><use xlink:href="#q"/><use xlink:href="#r"/><use xlink:href="#s"/><use xlink:href="#t"/><use xlink:href="#u"/><use xlink:href="#v"/><use xlink:href="#w"/><use xlink:href="#x"/><use xlink:href="#y"/><use xlink:href="#z"/></g></svg>