<svg width="60" height="60" viewBox="0 0 60 60" xmlns="http://www.w3.org/2000/svg"><g fill="none"><path d="M54.516 32.928c-4.848 3-15.876 4.11-21.522-.474-5.646-4.584-7.872.054-13.2 1.2-5.328 1.146-14.22-2.238-14.22-2.238s13.386-10.386 13.59-10.8c.204-.414 12.36-1.512 12.78-2.016.42-.504 15.744 2.202 15.714 2.64-.03.438 4.404 6.324 4.8 6.558.396.234 2.058 5.13 2.058 5.13z" fill="#8080EF"/><path d="M27.252 15.564s23.916 2.238 21.948 4.158c-3.702 3.6-15.18 10.836-15.414 12.6-.234 1.764 7.014-.414 6.924 1.422-.09 1.836-11.262 10.122-11.25 11.79.012 1.668 8.52-1.338 8.07.09C37.08 47.052 20.91 60 19.278 59.91c-1.632-.09-5.364-14.268-3.858-14.268 1.506 0 5.64-.21 6.678-.12 1.038.09 2.55-6.174 3.228-7.29.678-1.116-7.674.06-9.036-1.404-1.362-1.464 7.458-21.99 10.962-21.264z" fill="#FAD050"/><path d="M20.364 58.2a.3.3 0 01-.264-.444L31.374 36.6l-6.438-1.014a.3.3 0 01-.234-.402l2.046-5.292a.3.3 0 01.558.216l-1.914 4.944 6.486 1.014a.3.3 0 01.216.438l-11.466 21.51a.3.3 0 01-.264.186z" fill="#FAD97E"/><path d="M19.494 31.32a21.528 21.528 0 0013.248.384c.636-.18 1.272-.378 1.902-.6 2.79-2.766 11.4-8.4 14.532-11.4 1.992-1.92-21.924-4.158-21.924-4.158-2.352-.468-7.086 8.604-9.546 15.054.588.27 1.188.504 1.788.72z" fill="#FFB229"/><path d="M46.578 25.296c2.1-3.402-4.728-1.8-12.96 1.122-8.232 2.922-10.368-.402-12.948-.702-2.58-.3-3.726 2.34-11.094 5.4C2.094 34.2-5.124 25.8 5.4 17.478c4.2-3.354 7.098.6 7.098.6C8.574 10.398 20.124-3.3 30 9.6 32.718 2.04 37.758.048 44.814.048s10.062 12.468 6.564 15.906c4.398.24 14.202 8.64 4.2 16.608-4.212 3.354-13.578.108-9-7.266z" fill="#B1B1FA"/><path d="M20.256 58.2h-.114c-1.278-.33-4.008-10.638-4.032-10.74a.309.309 0 01.6-.144c.6 2.4 2.748 9.456 3.546 10.254.438-.402 1.86-1.464 4.2-3.21 3.072-2.28 8.136-6.042 8.766-6.888a.3.3 0 01.342-.378.432.432 0 01.288.27c.114.51-1.056 1.554-9.042 7.476-2.04 1.512-3.96 2.94-4.2 3.222a.444.444 0 01-.354.138z" fill="#F8FAFB"/><path d="M58.578 21.708a.3.3 0 01-.228-.102c-4.05-4.71-9.312-5.484-12.888-4.638-2.226.528-3.864 1.686-4.2 2.952a.324.324 0 01-.3.228.3.3 0 01-.288-.24c-.816-4.062-4.074-6.546-8.724-6.648-4.35-.06-9.612 2.208-10.728 6.654a.309.309 0 01-.6-.144c1.2-4.752 6.726-7.2 11.328-7.104 4.602.096 7.944 2.4 9.102 6.264.72-1.134 2.262-2.07 4.26-2.544 3.756-.888 9.288-.084 13.488 4.824a.3.3 0 01-.228.498h.006zM34.074 7.896a.3.3 0 01-.276-.42 11.886 11.886 0 017.74-6.276 7.668 7.668 0 016.888 1.566.3.3 0 11-.384.462 7.11 7.11 0 00-6.372-1.47 11.25 11.25 0 00-7.32 5.964.3.3 0 01-.276.174zm-21 5.364h-.084a.3.3 0 01-.204-.372c.996-3.384 3.216-6 5.952-6.924 2.4-.846 5.022-.36 7.53 1.41a.301.301 0 01-.348.492c-2.346-1.65-4.764-2.112-6.99-1.332-2.556.894-4.638 3.336-5.574 6.528a.3.3 0 01-.282.198zm-8.796 8.448a.3.3 0 01-.246-.468c1.26-1.8 2.904-2.94 4.518-3.042a3.972 3.972 0 013.258 1.446.302.302 0 01-.45.402 3.378 3.378 0 00-2.772-1.248c-1.428.09-2.904 1.104-4.062 2.784a.3.3 0 01-.246.126z" fill="#D5D5FF"/></g></svg>