<svg width="164" height="30" viewBox="0 0 164 30" xmlns="http://www.w3.org/2000/svg"><g fill="#FFF" fill-rule="evenodd"><path d="M41.336 8.793a1.96 1.96 0 011.976-1.96H53.33c.988 0 1.784.79 1.784 1.77s-.796 1.77-1.784 1.77h-8.042v3.783h6.917c.988 0 1.784.79 1.784 1.77s-.796 1.77-1.784 1.77h-6.917v5.09a1.96 1.96 0 01-1.976 1.96 1.96 1.96 0 01-1.976-1.96V8.793zm15.233-.136a1.96 1.96 0 011.976-1.96 1.96 1.96 0 011.976 1.96v12.414h7.274c.988 0 1.784.79 1.784 1.77s-.796 1.769-1.784 1.769h-9.277a1.96 1.96 0 01-1.976-1.96V8.657h.027z"/><path d="M70.567 22.105l6.258-13.992c.44-.953 1.235-1.552 2.306-1.552h.22c1.07 0 1.838.571 2.277 1.552l6.258 13.992c.138.272.193.545.193.79a1.867 1.867 0 01-1.867 1.878c-.933 0-1.537-.544-1.894-1.334l-1.207-2.804h-7.878l-1.262 2.913c-.33.762-.988 1.225-1.812 1.225a1.808 1.808 0 01-1.811-1.824c0-.272.082-.572.22-.844zm11.089-4.927l-2.47-5.853-2.47 5.853h4.94z" fill-rule="nonzero"/><path d="M91.811 10.454h-3.787c-.988 0-1.812-.817-1.812-1.797s.824-1.797 1.812-1.797h11.528c.988 0 1.811.817 1.811 1.797s-.823 1.797-1.811 1.797h-3.788v12.36a1.96 1.96 0 01-1.976 1.96 1.96 1.96 0 01-1.977-1.96v-12.36zm11.007-1.797a1.96 1.96 0 011.976-1.96 1.96 1.96 0 011.976 1.96v14.156a1.96 1.96 0 01-1.976 1.96 1.96 1.96 0 01-1.976-1.96V8.657zm6.258 7.133v-.055c0-5.063 3.843-9.201 9.332-9.201 2.69 0 4.501.707 5.984 1.796.411.3.768.871.768 1.552 0 1.062-.878 1.906-1.949 1.906a1.95 1.95 0 01-1.18-.381c-1.098-.817-2.25-1.28-3.65-1.28-3.02 0-5.188 2.477-5.188 5.526v.055c0 3.049 2.113 5.58 5.188 5.58 1.674 0 2.772-.517 3.897-1.388a1.89 1.89 0 011.18-.435c.988 0 1.84.816 1.84 1.796 0 .6-.303 1.09-.66 1.389-1.619 1.388-3.513 2.232-6.367 2.232-5.27.054-9.195-4.002-9.195-9.093z"/><path d="M126.23 15.79v-.055c0-5.063 4.008-9.201 9.552-9.201 5.517 0 9.497 4.083 9.497 9.147v.054c0 5.064-4.007 9.201-9.552 9.201-5.517 0-9.497-4.11-9.497-9.147zm14.932 0v-.055c0-3.049-2.25-5.58-5.435-5.58-3.184 0-5.38 2.477-5.38 5.526v.054c0 3.049 2.251 5.58 5.435 5.58 3.184 0 5.38-2.477 5.38-5.526z" fill-rule="nonzero"/><path d="M147.557 8.711a1.96 1.96 0 011.976-1.96h.412c.96 0 1.51.463 2.059 1.144l7.602 9.909V8.63c0-1.062.879-1.933 1.95-1.933 1.07 0 1.948.871 1.948 1.933v14.129a1.96 1.96 0 01-1.976 1.96h-.137c-.961 0-1.51-.463-2.059-1.144l-7.877-10.263v9.528a1.948 1.948 0 01-1.95 1.933 1.948 1.948 0 01-1.948-1.933V8.711zM14.19 16.443h3.65l3.24-5.363H10.924l-3.349-5.5h16.853L27.667.219H2.8A2.71 2.71 0 00.44 1.578c-.467.845-.467 1.88.027 2.696l14.684 24.12a2.699 2.699 0 002.306 1.307c.933 0 1.811-.49 2.305-1.307l.851-1.389-6.423-10.562zM27.365 5.58h6.313l.796-1.306a2.635 2.635 0 00.027-2.695C34.035.735 33.13.218 32.141.218h-1.537L27.365 5.58z"/><path d="M25.828 8.14l-6.862 11.297 3.13 5.173L32.112 8.14z"/></g></svg>