<svg version="1.1" id="Capa_1" xmlns="http://www.w3.org/2000/svg" x="0" y="0" viewBox="0 0 50.8 50.7" xml:space="preserve"><style>.st3{fill:#db5353}</style><g id="XMLID_370_"><g id="XMLID_384_"><g id="XMLID_385_"><path id="XMLID_386_" d="M47.7 16.2c-1.3-2.5-3.1-4.8-4.8-7.1-4.7-6-13.4-9.2-21-8.2C.2 4-7.3 36.2 12.6 47c4.7 2.6 10.1 3 15.4 2.6 10-.8 19.5-9.1 21.6-19 1-4.8.3-10-1.9-14.4z" fill="#f0d05b"/></g></g><g id="XMLID_382_"><path id="XMLID_383_" d="M33.1 29c-1 12.1-15.6 9.7-15.2 0 2.9 2.9 11.1 2.5 15.2 0z" fill="#f8fafb"/></g><g id="XMLID_379_"><g id="XMLID_380_"><path id="XMLID_381_" d="M49.4 20.9c0 1.3 0 2.6-.1 3.9-.4 4.1-1.4 8.2-4 11.4-2.2 2.8-5.3 4.8-8.5 6.2-6.8 3-15.1 3.6-22.2 1-3.3-1.2-6.2-3.2-8.3-6-2.3-3.1-3.5-7-4.1-10.7-.3-1.9-.5-3.8-.5-5.6-2.2 9.6.9 20.5 10.9 25.9 4.7 2.6 10.1 3 15.4 2.6 10-.8 19.5-9.1 21.6-19 .7-3.2.6-6.6-.2-9.7z" fill="#ecb03b"/></g></g><g id="XMLID_377_"><path id="XMLID_378_" class="st3" d="M20.6 14.9c-.3-3.3-2.8-3.3-3.7-2.4-1.5 1.4-1.3 2.1-1.9 2.1-.5 0-.4-.7-1.9-2.1-.9-.9-3.4-.9-3.7 2.4-.3 3.2 4 7.2 5.6 7.2 1.6 0 5.9-4 5.6-7.2z"/></g><g id="XMLID_375_"><path id="XMLID_376_" class="st3" d="M41.6 14.9c-.3-3.3-2.8-3.3-3.7-2.4-1.5 1.4-1.3 2.1-1.9 2.1s-.4-.7-1.9-2.1c-.9-.9-3.4-.9-3.7 2.4-.3 3.2 4 7.2 5.6 7.2 1.6 0 5.9-4 5.6-7.2z"/></g><g id="XMLID_371_"><path id="XMLID_372_" d="M25.6 38.1h-.5c-4-.3-8.2-3.5-8-9.1 0-.3.2-.6.5-.8.3-.1.7 0 .9.2 2.3 2.4 10.1 2.3 14.1-.1.3-.2.6-.2.9 0 .3.2.4.5.4.8-.4 6.3-4.4 9-8.3 9zm-6.7-7.4c.6 3.5 3.5 5.5 6.3 5.7 2.7.2 5.9-1.3 6.8-5.9-3.9 1.7-9.7 1.9-13.1.2z" fill="#dd8f28"/></g></g></svg>