<svg xmlns="http://www.w3.org/2000/svg" xmlns:xlink="http://www.w3.org/1999/xlink" width="49" height="50" viewBox="0 0 49 50"><defs><path id="b" d="M367.354 1035.119s16.817 6.415 21.496 6.88c.49-.781.794-1.39.794-1.39l1.117.41.382-1.425 2.26.673v-1.346l1.523.252v-40.287l-25.465-4.906-2.171 1.07z"/><path id="j" d="M363.859 1023.55h-.059a.325.325 0 01-.206-.218 30.234 30.234 0 010-3.278.244.244 0 01.078-.173.239.239 0 01.177-.064.244.244 0 01.17.08.249.249 0 01.065.177c-.034.891-.063 2.218-.034 2.852a59.301 59.301 0 004.219-4.54.243.243 0 01.339-.014.25.25 0 01.029.34c-3.847 4.476-4.543 4.837-4.778 4.837z"/><path id="c" d="M367.29 995.05c-.343 2.653-4.753 29.09-10.29 37.545 5.944 5.89 22.765 9.831 26.852 9.356 7.134-12.94 9.07-42.129 9.07-42.129z"/><path id="d" d="M381.344 1035.237a1.94 1.94 0 01-.26 0c-.98-.129-1.523-.96-2.008-1.693-.167-.248-.324-.495-.49-.693a3.269 3.269 0 01-2.166 1.178 3.13 3.13 0 01-2.308-.99c-1.504-1.396-2.298-2.005-3.92-.614a.243.243 0 01-.397-.124l-.078-.302c-.28-1.059-.49-1.826-.931-2.02-.343-.148-.922 0-1.77.496a.243.243 0 01-.252.006.248.248 0 01.013-.437c1.014-.584 1.695-.748 2.2-.535.656.278.892 1.12 1.195 2.283 1.853-1.387 2.98-.337 4.273.87a2.667 2.667 0 001.96.852 2.97 2.97 0 002.01-1.218.244.244 0 01.176-.084.249.249 0 01.18.075c.27.299.51.622.721.965.49.708.916 1.381 1.666 1.485 1.147.154 1.852-1.04 2.396-2.228a.245.245 0 11.424-.04.25.25 0 01.022.248c-.367.768-1.166 2.52-2.656 2.52z"/><path id="e" d="M384.144 1026.437c-.921 0-1.764-.713-2.49-1.327a10.053 10.053 0 00-.916-.717l-.215-.139c-1.147-.757-1.147-.757-2.45-.178-1.676.742-2.127.4-2.99-.44a11.221 11.221 0 00-.857-.778c-.774-.619-1.47-.446-2.293-.243-.823.203-1.769.44-2.788-.282a.25.25 0 01-.051-.337.243.243 0 01.33-.069c.838.594 1.593.406 2.391.208.8-.198 1.755-.44 2.715.332.311.253.609.522.892.807.754.737.98.99 2.45.346 1.47-.643 1.602-.653 2.94.218l.21.139c.342.23.669.482.98.752 1.069.901 2.073 1.753 3.21.763a.243.243 0 01.345.027.25.25 0 01-.026.349c-.375.36-.87.563-1.387.57z"/><path id="f" d="M387.09 1017.884c-.847 0-1.621-.56-2.38-1.104a9.117 9.117 0 00-1.211-.778 2.515 2.515 0 00-1.142.367c-.622.302-1.323.648-1.96.218a.246.246 0 01-.059-.055c-2.205-2.846-4.748-2.678-7.433-2.505l-.98.06a.246.246 0 01-.245-.248c0-.137.11-.247.245-.247l.98-.06c2.69-.173 5.468-.356 7.84 2.659.397.237.887 0 1.47-.273a2.708 2.708 0 011.47-.41h.074c.463.241.906.523 1.323.841.896.644 1.744 1.252 2.626.91a.244.244 0 01.3.148.249.249 0 01-.124.313c-.25.11-.52.166-.793.164z"/><path id="g" d="M384.391 1009.896a1.097 1.097 0 01-.808-.352c-2.42-2.93-5.219-3.876-8.58-2.906h-.069a.877.877 0 01-.76-.495 1.747 1.747 0 00-.376-.43.248.248 0 01.049-.436.243.243 0 01.25.044c.192.153.357.337.49.545.146.218.205.277.328.287 3.498-.99 6.541.035 9.04 3.06.397.4.936.123 1.779-.357a4.187 4.187 0 011.96-.723c.24.003.468.1.637.272.137.143.328.22.524.213.136 0 .245.111.245.248s-.11.247-.245.247a1.189 1.189 0 01-.847-.326c-.128-.11-.192-.159-.319-.159a3.794 3.794 0 00-1.71.659 3.53 3.53 0 01-1.588.609z"/><path id="h" d="M369.349 1007.172h-.064a.325.325 0 01-.2-.218 30.234 30.234 0 010-3.277.234.234 0 01.255-.238.244.244 0 01.17.08.249.249 0 01.064.178c-.034.901-.063 2.248-.034 2.871a62.253 62.253 0 004.719-4.668.244.244 0 01.426.094.25.25 0 01-.073.248c-4.268 4.534-5.033 4.93-5.263 4.93z"/><path id="i" d="M366.484 1015.573h-.069a.325.325 0 01-.2-.217 30.239 30.239 0 010-3.278.234.234 0 01.255-.238.244.244 0 01.17.08.249.249 0 01.064.178c-.034.901-.063 2.248-.034 2.876a60.777 60.777 0 004.655-4.564.244.244 0 01.426.094.25.25 0 01-.073.248c-4.2 4.425-4.959 4.821-5.194 4.821z"/><path id="a" d="M391.533 1031.914s8.913 2.995 14.21 1.792c-6.37-5.846-10.844-34.817-10.844-34.817l-12.779-1.069 6.492 27.629z"/><path id="k" d="M361.729 1031h-.059a.325.325 0 01-.206-.218 30.244 30.244 0 010-3.278c0-.066.028-.13.076-.175a.234.234 0 01.18-.062.244.244 0 01.17.08.249.249 0 01.064.177c-.058.876-.058 2.208-.058 2.842a59.275 59.275 0 004.219-4.53.243.243 0 01.338-.014.25.25 0 01.029.34c-3.842 4.451-4.537 4.837-4.753 4.837z"/><path id="l" d="M384.435 1041.064a.245.245 0 01-.22-.137.25.25 0 01.024-.259c3.381-4.58 8.967-35.797 8.433-40.812a.248.248 0 01.218-.274.247.247 0 01.272.22c.45 4.282-4.846 36.173-8.521 41.163a.244.244 0 01-.206.1z"/><path id="m" d="M389.83 1039.604h-.064a.248.248 0 01-.171-.302c1.769-6.535 3.895-36.882 4.096-39.783l-24.441-4.55a.247.247 0 01-.196-.286.243.243 0 01.1-.16.238.238 0 01.184-.038l24.657 4.589c.124.022.21.136.2.262 0 .332-2.263 33.223-4.125 40.1a.245.245 0 01-.24.168z"/><path id="n" d="M392.956 1037.796h-.054a.25.25 0 01-.186-.297c.686-3.074 1.088-21.678 1.093-21.866a.251.251 0 01.25-.243.244.244 0 01.172.076c.045.047.07.11.068.176 0 .768-.407 18.842-1.103 21.966a.245.245 0 01-.24.188z"/><path id="o" d="M371.62 998.067c-1.303 0-1.99-1.327-1.99-2.638a3.35 3.35 0 01.599-1.99 2.319 2.319 0 011.96-.941c.78-.06 1.549.227 2.102.787.404.492.6 1.126.544 1.762a.247.247 0 01-.275.218.249.249 0 01-.215-.277 1.994 1.994 0 00-.427-1.376 2.211 2.211 0 00-1.73-.619 1.845 1.845 0 00-1.558.743 2.848 2.848 0 00-.49 1.693c0 1.064.49 2.143 1.5 2.143.135 0 .245.111.245.248 0 .136-.11.247-.245.247z"/><path id="p" d="M376.45 998.927c-1.304 0-1.99-1.326-1.99-2.638a3.35 3.35 0 01.608-1.98 2.319 2.319 0 011.96-.951c.78-.06 1.549.227 2.102.787.404.492.6 1.126.544 1.762a.247.247 0 01-.274.218.249.249 0 01-.216-.277c.027-.5-.134-.992-.45-1.376a2.211 2.211 0 00-1.73-.619 1.845 1.845 0 00-1.544.752 2.848 2.848 0 00-.49 1.694c0 1.064.49 2.143 1.5 2.143.135 0 .244.11.244.248 0 .136-.11.247-.245.247z"/><path id="q" d="M381.28 999.837c-1.304 0-1.99-1.327-1.99-2.639a3.35 3.35 0 01.608-1.98 2.319 2.319 0 011.96-.95 2.665 2.665 0 012.087.777c.398.493.588 1.124.53 1.757a.247.247 0 01-.275.218.249.249 0 01-.215-.277 1.994 1.994 0 00-.427-1.376 2.211 2.211 0 00-1.73-.62 1.845 1.845 0 00-1.543.753 2.848 2.848 0 00-.49 1.693c0 1.065.49 2.144 1.5 2.144.135 0 .245.11.245.247s-.11.248-.245.248z"/><path id="r" d="M386.11 1000.727c-1.304 0-1.99-1.327-1.99-2.638a3.35 3.35 0 01.608-1.98 2.319 2.319 0 011.96-.951c.78-.06 1.549.227 2.102.787.404.492.6 1.126.544 1.762a.247.247 0 01-.274.218.249.249 0 01-.216-.277 1.964 1.964 0 00-.426-1.376 2.211 2.211 0 00-1.73-.619 1.845 1.845 0 00-1.563.743 2.848 2.848 0 00-.49 1.693c0 1.064.49 2.143 1.5 2.143.135 0 .244.111.244.248 0 .136-.11.247-.245.247z"/><path id="s" d="M390.94 1001.607c-1.304 0-1.99-1.327-1.99-2.638a3.346 3.346 0 01.608-1.98 2.32 2.32 0 011.936-.961c.78-.06 1.548.227 2.102.787.403.492.599 1.126.544 1.762a.247.247 0 01-.275.218.249.249 0 01-.215-.277 1.994 1.994 0 00-.427-1.376 2.211 2.211 0 00-1.73-.619 1.845 1.845 0 00-1.543.752 2.848 2.848 0 00-.49 1.694c0 1.064.49 2.143 1.5 2.143.135 0 .244.11.244.248 0 .136-.11.247-.245.247z"/></defs><use fill="#fad050" xlink:href="#a" transform="translate(-357 -992)"/><use fill="#fad97e" xlink:href="#b" transform="translate(-357 -992)"/><use fill="#ffecb4" xlink:href="#c" transform="translate(-357 -992)"/><use fill="#fabb24" xlink:href="#d" transform="translate(-357 -992)"/><use fill="#fabb24" xlink:href="#e" transform="translate(-357 -992)"/><use fill="#fabb24" xlink:href="#f" transform="translate(-357 -992)"/><use fill="#fabb24" xlink:href="#g" transform="translate(-357 -992)"/><use fill="#69e781" xlink:href="#h" transform="translate(-357 -992)"/><use fill="#69e781" xlink:href="#i" transform="translate(-357 -992)"/><use fill="#69e781" xlink:href="#j" transform="translate(-357 -992)"/><use fill="#69e781" xlink:href="#k" transform="translate(-357 -992)"/><use fill="#fabb24" xlink:href="#l" transform="translate(-357 -992)"/><use fill="#fabb24" xlink:href="#m" transform="translate(-357 -992)"/><use fill="#fabb24" xlink:href="#n" transform="translate(-357 -992)"/><use fill="#849db0" xlink:href="#o" transform="translate(-357 -992)"/><use fill="#849db0" xlink:href="#p" transform="translate(-357 -992)"/><use fill="#849db0" xlink:href="#q" transform="translate(-357 -992)"/><use fill="#849db0" xlink:href="#r" transform="translate(-357 -992)"/><use fill="#849db0" xlink:href="#s" transform="translate(-357 -992)"/></svg>