<svg width="120" height="103" viewBox="0 0 120 103" xmlns="http://www.w3.org/2000/svg"><g fill="none"><path d="M48.372 56.137h12.517L72.045 37.6H37.186L25.688 18.539h57.825L94.668 0H9.271a9.265 9.265 0 00-8.073 4.716 9.265 9.265 0 00.134 9.343l50.38 83.501a9.266 9.266 0 007.938 4.476 9.264 9.264 0 007.935-4.476l2.898-4.804-22.111-36.619z" fill="#FFF"/><path d="M93.575 18.539h.031v.004l21.652.004 2.705-4.488a9.262 9.262 0 00.133-9.343A9.26 9.26 0 00110.026 0h-5.294L93.575 18.539zm-5.284 8.817l-23.566 39.13 10.794 17.918 34.423-57.048z" fill="#69E781"/></g></svg>