<svg version="1.1" id="Capa_1" xmlns="http://www.w3.org/2000/svg" x="0" y="0" viewBox="0 0 50.8 50.7" xml:space="preserve"><style>.st7{fill:#1f2e48}.st8{fill:#4372e6}</style><g id="XMLID_351_"><g id="XMLID_367_"><path id="XMLID_368_" d="M48.1 16.2c-1.9-4.5-4.9-8.7-8.9-11.5-4.1-2.9-9-4.2-14-3.8-5 .4-9.9 2.2-14.1 5-3.7 2.5-7.3 5.8-8.9 10-2.5 6.5-1.4 16 2.5 21.9 7 10.7 24 17.4 34.6 7.9 3.8-3.4 7.8-8.4 9.7-13.2 2.1-5.4 1.4-11.1-.9-16.3z" fill="#a3cbf7"/></g><g id="XMLID_365_"><path id="XMLID_366_" d="M48.1 16.2c-.1-.3-.3-.6-.4-.9.1.5.1 1 .2 1.5.4 4.9-.2 10.1-2 14.6-1.3 3.5-3.5 6.6-6.5 8.8-5.8 4.3-13.6 4.5-20.4 2.6-3.7-1-7.2-2.7-10.3-4.9-3.4-2.4-5.9-5.5-7.1-9.5-.5-1.6-.8-3.2-.9-4.9C.7 28.6 2 34 4.5 37.8c7 10.7 24 17.4 34.6 7.9 3.8-3.4 7.8-8.4 9.7-13.2 2.3-5.4 1.6-11.1-.7-16.3z" fill="#7daff8"/></g><g id="XMLID_358_"><g id="XMLID_362_"><g id="XMLID_363_"><ellipse id="XMLID_364_" class="st7" cx="16.3" cy="23.6" rx="1.7" ry="2"/></g></g><g id="XMLID_359_"><g id="XMLID_360_"><ellipse id="XMLID_361_" class="st7" cx="35.2" cy="23.6" rx="1.7" ry="2"/></g></g></g><g id="XMLID_356_"><path id="XMLID_357_" class="st8" d="M18.9 34.3c-.4 0-.8-.3-.8-.7-.1-.5.3-.9.7-1 4.8-.7 13 0 13.3 0 .5 0 .8.5.8.9 0 .5-.5.8-.9.8-.1 0-8.3-.7-12.9 0h-.2z"/></g><g id="XMLID_354_"><path id="XMLID_355_" class="st8" d="M8.3 14.9c-.4 0-.8-.3-.9-.8 0-.5.3-.9.8-.9 1.9-.1 11.6-.1 13.1 0 .5 0 .8.4.8.9s-.4.8-.9.8c-1.4-.1-11.1-.1-12.9 0z"/></g><g id="XMLID_352_"><path id="XMLID_353_" class="st8" d="M40 14.9c-.1 0-.1 0 0 0-.1 0-8.5-.5-12.3-2-.4-.2-.7-.7-.5-1.1.2-.4.7-.7 1.1-.5 2.9 1.2 9.5 1.8 11.8 1.9.5 0 .8.4.8.9-.1.5-.5.8-.9.8z"/></g></g></svg>