<svg version="1.1" id="Capa_1" xmlns="http://www.w3.org/2000/svg" x="0" y="0" viewBox="0 0 50.8 50.7" xml:space="preserve"><style>.st7{fill:#1f2e48}.st12{fill:#d0e9fd}.st13{fill:#5f5ff1}</style><g id="XMLID_46_"><g id="XMLID_51_"><g id="XMLID_347_"><g id="XMLID_348_"><path id="XMLID_349_" d="M49.5 18.9c-.6-3.1-2.8-5.7-4.8-8-6.3-7.1-16.6-11.7-26-8.2-.8.3-1.6.7-2.3 1.1h-.1l-.1.1c-1.6.9-3.7 2-5.1 3.2-2.9 2.6-5.6 5.7-7.5 9.1C-.8 22.8 2 33.7 6.2 39.7c5.3 7.6 15.9 12.1 25.1 9.5 1.6-.5 3.1-1.2 4.6-2 7.8-3.9 11.7-9.3 13.1-17.6.5-3.4 1.1-7.3.5-10.7z" fill="#b1b0f8"/></g></g><g id="XMLID_344_"><g id="XMLID_345_"><path id="XMLID_346_" d="M49.6 23.8c-.6 3.8-1.5 7.9-3.5 11.3-1.9 3.1-4.7 5.5-7.9 7.2-6.6 3.4-14.7 3.5-21.5.6-3.2-1.4-6.1-3.5-8.2-6.3-2.1-2.9-3.6-6.2-4.7-9.6-.7-2.4-1.4-5.3-1.5-8.2-2.5 6.6.1 15.6 3.8 21 5.3 7.6 15.9 12.1 25.1 9.5 1.6-.5 3.1-1.2 4.6-2 7.8-3.9 11.7-9.3 13.1-17.6.3-2.1.7-4.4.8-6.7 0 .2 0 .5-.1.8z" fill="#7f7fec"/></g></g><g id="XMLID_341_"><g id="XMLID_342_"><path id="XMLID_343_" class="st7" d="M19.1 22.5c.2-.3.3-.8.4-1.2 0-1.2-.8-2.2-1.8-2.3-1.1 0-2 .9-2 2.1 0 .6.2 1.1.5 1.6.8-.3 2-.2 2.9-.2z"/></g></g><g id="XMLID_338_"><g id="XMLID_339_"><path id="XMLID_340_" d="M29.3 32.4c-.4 0-.8-.3-.8-.7-.2-1.6-1.1-3.5-2.7-3.6-1.6-.1-2.7 1.7-3.1 3.4-.1.4-.6.7-1 .6-.4-.1-.7-.6-.6-1 .6-2.3 2.3-4.8 4.8-4.6 2.6.2 3.9 2.8 4.2 5 .1.5-.2.9-.7 1 0-.1-.1-.1-.1-.1z" fill="#4a4ae1"/></g></g><g id="XMLID_326_"><g id="XMLID_335_"><g id="XMLID_336_"><path id="XMLID_337_" class="st12" d="M14.9 24.5c-.4 0-.7-.2-.8-.6-.1-.4.1-.9.6-1 .7-.2 1.4-.3 2.1-.4.5 0 .9.3.9.7 0 .5-.3.9-.7.9l-1.8.3c-.1.1-.2.1-.3.1z"/></g></g><g id="XMLID_330_"><g id="XMLID_331_"><path id="XMLID_332_" class="st12" d="M6.3 34.5h-.2c-.5-.1-.7-.6-.6-1 .3-1.2.7-2.4 1.2-3.4.2-.4.7-.6 1.1-.4.4.2.6.7.4 1.1-.4 1-.8 2-1.1 3.1-.1.3-.4.6-.8.6zm3-6.2c-.2 0-.4-.1-.5-.2-.4-.3-.4-.8-.1-1.2.8-1 1.7-1.8 2.7-2.5.4-.3.9-.2 1.2.2.3.4.2.9-.2 1.2-.9.6-1.7 1.3-2.4 2.2-.3.2-.5.3-.7.3z"/></g></g><g id="XMLID_327_"><g id="XMLID_328_"><path id="XMLID_329_" class="st12" d="M5.8 39.9c-.4 0-.8-.4-.8-.8V37c0-.5.4-.8.9-.8s.8.4.8.9V39c0 .5-.4.9-.9.9.1 0 0 0 0 0z"/></g></g></g><g id="XMLID_323_"><g id="XMLID_324_"><path id="XMLID_325_" class="st7" d="M32.1 22.5c-.2-.3-.3-.8-.4-1.2 0-1.2.8-2.2 1.8-2.3 1.1 0 2 .9 2 2.1 0 .6-.2 1.1-.5 1.6-.8-.3-2-.2-2.9-.2z"/></g></g><g id="XMLID_54_"><g id="XMLID_320_"><g id="XMLID_321_"><path id="XMLID_322_" class="st12" d="M36.3 24.5h-.2c-.6-.2-1.2-.3-1.8-.3-.5 0-.8-.5-.7-.9 0-.5.5-.8.9-.7.7.1 1.4.2 2.1.4.4.1.7.6.6 1-.2.3-.5.5-.9.5z"/></g></g><g id="XMLID_315_"><g id="XMLID_316_"><path id="XMLID_317_" class="st12" d="M44.9 34.5c-.4 0-.7-.3-.8-.6-.3-1.1-.6-2.1-1.1-3.1-.2-.4 0-.9.4-1.1.4-.2.9 0 1.1.4.5 1.1.9 2.2 1.2 3.4.1.5-.2.9-.6 1h-.2zM42 28.3c-.2 0-.5-.1-.7-.3-.7-.9-1.5-1.6-2.4-2.2-.4-.3-.5-.8-.2-1.2.3-.4.8-.5 1.2-.2 1 .7 1.9 1.5 2.7 2.5.3.4.2.9-.1 1.2-.2.1-.3.2-.5.2z"/></g></g><g id="XMLID_312_"><g id="XMLID_313_"><path id="XMLID_314_" class="st12" d="M45.4 39.9c-.5 0-.9-.4-.8-.9v-1.9c0-.5.3-.9.8-.9s.9.3.9.8v2.1c-.1.5-.5.8-.9.8z"/></g></g></g></g><g id="XMLID_49_"><path id="XMLID_50_" class="st13" d="M13.6 18.5c-.4 0-.7-.3-.8-.7-.1-.5.2-.9.7-1 2.7-.5 6.6-3.8 7.6-6.3.2-.4.7-.6 1.1-.5.4.2.6.7.5 1.1-1.2 3.1-5.6 6.7-8.9 7.3-.1 0-.1.1-.2.1z"/></g><g id="XMLID_47_"><path id="XMLID_48_" class="st13" d="M39.7 18.5h-.2c-3.3-.6-7.7-4.3-8.9-7.3-.2-.4 0-.9.5-1.1.4-.2.9 0 1.1.5 1 2.5 4.9 5.8 7.6 6.3.5.1.8.5.7 1 0 .3-.4.6-.8.6z"/></g></g></svg>